<svg width="413" height="432" viewBox="0 0 413 432" fill="none" xmlns="http://www.w3.org/2000/svg">
<path d="M302.136 47.5421C308.691 51.1447 313.967 58.349 316.923 70.2731C319.886 82.2216 320.237 97.9651 317.627 116.696C312.414 154.096 295.689 201.311 268.349 249.17C241.01 297.029 208.689 335.673 178.89 359.562C163.966 371.526 150.093 379.452 138.157 383.213C126.245 386.966 117.226 386.314 110.67 382.712C104.115 379.109 98.8393 371.905 95.8828 359.981C92.9202 348.032 92.5684 332.289 95.1789 313.558C100.391 276.158 117.117 228.943 144.457 181.084C171.796 133.225 204.117 94.5809 233.916 70.692C248.84 58.7281 262.713 50.8019 274.649 47.0412C286.561 43.2882 295.58 43.9395 302.136 47.5421Z" stroke="url(#paint0_radial_1_13)" stroke-width="20"/>
<path d="M402.232 216.408C402.211 223.611 398.443 231.574 389.234 239.928C380.02 248.287 366.143 256.258 348.158 263.14C312.253 276.879 262.004 285.511 206.029 285.352C150.053 285.194 99.8554 276.279 64.0319 262.337C46.0874 255.353 32.2576 247.304 23.0929 238.894C13.9328 230.487 10.2124 222.503 10.2335 215.3C10.2547 208.097 14.022 200.133 23.2313 191.779C32.4453 183.421 46.3221 175.45 64.3074 168.568C100.212 154.828 150.462 146.197 206.437 146.355C262.412 146.513 312.61 155.429 348.433 169.371C366.378 176.354 380.208 184.403 389.372 192.814C398.533 201.22 402.253 209.205 402.232 216.408Z" stroke="url(#paint1_radial_1_13)" stroke-width="20"/>
<path d="M300.766 384.049C294.182 387.604 285.157 388.188 273.275 384.347C261.368 380.498 247.556 372.47 232.725 360.396C203.111 336.287 171.089 297.405 144.119 249.346C117.149 201.286 100.787 153.949 95.8623 116.512C93.396 97.7626 93.8689 82.0224 96.9233 70.0962C99.9715 58.1946 105.302 51.0288 111.887 47.4741C118.471 43.9194 127.495 43.3353 139.378 47.1763C151.285 51.0252 165.097 59.0538 179.928 71.1276C209.541 95.2361 241.564 134.118 268.534 182.178C295.504 230.237 311.866 277.574 316.791 315.012C319.257 333.761 318.784 349.501 315.73 361.427C312.681 373.329 307.35 380.495 300.766 384.049Z" stroke="url(#paint2_radial_1_13)" stroke-width="20"/>
<path d="M203.679 188.43C205.068 187.44 206.932 187.44 208.321 188.43L232.128 205.395C233.557 206.413 234.155 208.244 233.603 209.91L224.542 237.264C224 238.901 222.469 240.006 220.745 240.006H191.255C189.531 240.006 188 238.901 187.458 237.264L178.397 209.91C177.845 208.244 178.443 206.413 179.872 205.395L203.679 188.43Z" fill="#0080F5"/>
<defs>
<radialGradient id="paint0_radial_1_13" cx="0" cy="0" r="1" gradientUnits="userSpaceOnUse" gradientTransform="translate(239 47.0797) rotate(96.0466) scale(303.785 265.098)">
<stop stop-color="#67FF92"/>
<stop offset="1" stop-color="#0080F5"/>
</radialGradient>
<radialGradient id="paint1_radial_1_13" cx="0" cy="0" r="1" gradientUnits="userSpaceOnUse" gradientTransform="translate(371.794 162.072) rotate(157.233) scale(308.747 260.838)">
<stop stop-color="#67FF92"/>
<stop offset="1" stop-color="#0080F5"/>
</radialGradient>
<radialGradient id="paint2_radial_1_13" cx="0" cy="0" r="1" gradientUnits="userSpaceOnUse" gradientTransform="translate(334.539 331.727) rotate(-142.696) scale(307.437 261.949)">
<stop stop-color="#67FF92"/>
<stop offset="1" stop-color="#0080F5"/>
</radialGradient>
</defs>
</svg>
