<svg width="1440" height="592" viewBox="0 0 1440 592" fill="none" xmlns="http://www.w3.org/2000/svg">
<rect width="1440" height="592" fill="white"/>
<path d="M990.205 295.928V345.733H1089.81V246.124H990.205V295.928ZM1070.47 291.944C1072.86 292.497 1075.03 293.745 1076.71 295.53C1077.63 296.491 1078.43 297.562 1079.1 298.717C1079.1 298.845 1074.79 301.753 1072.17 303.379C1072.08 303.443 1071.69 303.028 1071.27 302.399C1070.79 301.573 1070.11 300.882 1069.29 300.39C1068.48 299.898 1067.55 299.621 1066.59 299.586C1063.57 299.379 1061.63 300.964 1061.64 303.57C1061.62 304.219 1061.77 304.863 1062.08 305.435C1062.74 306.814 1063.97 307.634 1067.84 309.308C1074.98 312.376 1078.03 314.4 1079.93 317.276C1082.04 320.464 1082.52 325.612 1081.08 329.421C1079.49 333.565 1075.58 336.378 1070.06 337.31C1067.54 337.599 1064.99 337.572 1062.47 337.23C1058.63 336.607 1055.09 334.779 1052.36 332.011C1051.44 330.999 1049.66 328.361 1049.77 328.17C1050.06 327.954 1050.37 327.759 1050.69 327.588L1054.35 325.484L1057.21 323.827L1057.81 324.711C1058.82 326.154 1060.1 327.384 1061.59 328.329C1064.78 330.003 1069.13 329.771 1071.28 327.835C1072 327.126 1072.45 326.185 1072.55 325.177C1072.65 324.17 1072.4 323.159 1071.83 322.321C1071.03 321.213 1069.44 320.281 1064.98 318.336C1059.84 316.121 1057.63 314.75 1055.6 312.567C1054.34 311.126 1053.41 309.426 1052.87 307.587C1052.47 305.485 1052.41 303.332 1052.7 301.212C1053.76 296.247 1057.48 292.781 1062.91 291.753C1065.43 291.441 1067.98 291.511 1070.47 291.96V291.944ZM1047.09 296.119V300.199H1034.16V337.039H1024.99V300.192H1012.02V296.207C1011.99 294.835 1012.03 293.463 1012.14 292.095C1012.18 292.032 1020.1 292 1029.67 292.016H1047.05L1047.09 296.119Z" fill="#007AEA"/>
<g clip-path="url(#clip0_44_313)">
<path d="M879.616 265.4C866.016 265.4 857.516 272.2 854.116 285.8C859.216 279 865.166 276.45 871.966 278.15C875.846 279.119 878.617 281.932 881.69 285.052C886.692 290.126 892.476 296 905.116 296C918.716 296 927.216 289.2 930.616 275.6C925.516 282.4 919.566 284.95 912.766 283.25C908.885 282.281 906.114 279.467 903.042 276.348C898.044 271.273 892.259 265.4 879.616 265.4ZM854.116 296C840.516 296 832.016 302.8 828.616 316.4C833.716 309.6 839.666 307.05 846.466 308.75C850.346 309.719 853.117 312.532 856.19 315.652C861.192 320.726 866.976 326.6 879.616 326.6C893.216 326.6 901.716 319.8 905.116 306.2C900.016 313 894.066 315.55 887.266 313.85C883.385 312.881 880.614 310.067 877.542 306.948C872.544 301.873 866.759 296 854.116 296Z" fill="#007AEA"/>
</g>
<path d="M740.53 245H751.678V321.942H740.53V245ZM722.994 299.995H734.142V310.918H722.994V299.995ZM722.994 270.088H734.142V293.233H722.994V270.088ZM722.994 317.675H734.142V340.82H722.994V317.675ZM687.549 270.058H698.693V347H687.545L687.549 270.058ZM705.455 280.934H716.602V291.856H705.459L705.455 280.934ZM705.455 298.575H716.602V321.725H705.459L705.455 298.575ZM705.455 251.031H716.602V274.176H705.459L705.455 251.031Z" fill="#007AEA"/>
<g clip-path="url(#clip1_44_313)">
<path d="M607.394 256.609L579.76 261.646L584.562 245L546.214 252.514L545.617 262.603L512.019 256.597C509.705 256.463 508.357 258.124 509.312 260.431L557.933 345.694C558.979 347.402 561.389 347.469 562.445 345.694L610.12 260.423C611.196 258.496 609.548 256.236 607.394 256.609ZM560.179 343.356L512.562 259.853L545.432 265.728L543.882 291.898L557.356 288.789L553.599 307.186L563.834 304.076L558.754 328.659C558.501 330.267 560.595 331.122 561.631 328.821L591.558 269.097L576.789 271.947L578.798 264.982L606.87 259.865L560.179 343.356Z" fill="#007AEA"/>
</g>
<g clip-path="url(#clip2_44_313)">
<mask id="mask0_44_313" style="mask-type:luminance" maskUnits="userSpaceOnUse" x="349" y="245" width="102" height="102">
<path d="M349 245H451V347H349V245Z" fill="white"/>
</mask>
<g mask="url(#mask0_44_313)">
<path d="M451 294.678C451 287.921 442.538 281.516 429.563 277.546C432.559 264.325 431.229 253.802 425.364 250.431C423.943 249.636 422.334 249.235 420.706 249.271V253.904C421.662 253.904 422.432 254.095 423.078 254.448C425.904 256.071 427.132 262.242 426.176 270.185C425.946 272.14 425.572 274.197 425.113 276.297C420.768 275.25 416.358 274.493 411.913 274.032C409.264 270.378 406.375 266.905 403.264 263.636C410.043 257.338 416.405 253.887 420.732 253.887V249.25C415.011 249.25 407.527 253.326 399.957 260.393C392.392 253.372 384.904 249.335 379.188 249.335V253.967C383.493 253.967 389.877 257.401 396.655 263.657C393.744 266.717 390.833 270.185 388.066 274.032C383.611 274.488 379.193 275.252 374.844 276.318C374.385 274.328 374.023 272.317 373.761 270.292C372.783 262.344 373.99 256.173 376.799 254.533C377.42 254.159 378.232 253.989 379.188 253.989V249.356C377.445 249.356 375.86 249.73 374.492 250.516C368.648 253.887 367.339 264.384 370.352 277.568C357.419 281.563 349 287.942 349 294.678C349 301.436 357.462 307.84 370.437 311.806C367.441 325.032 368.771 335.555 374.636 338.921C375.988 339.711 377.568 340.085 379.311 340.085C385.031 340.085 392.516 336.009 400.085 328.942C407.65 335.967 415.134 340 420.855 340C422.496 340.035 424.116 339.633 425.551 338.836C431.395 335.47 432.704 324.972 429.691 311.789C442.581 307.819 451 301.414 451 294.678ZM423.927 280.81C423.12 283.589 422.184 286.329 421.122 289.021C419.385 285.642 417.477 282.352 415.406 279.166C418.36 279.603 421.208 280.143 423.932 280.81H423.927ZM414.408 302.953C412.851 305.671 411.179 308.321 409.397 310.896C403.159 311.446 396.885 311.453 390.646 310.917C387.067 305.805 383.937 300.393 381.292 294.742C383.933 289.077 387.05 283.646 390.607 278.507C396.844 277.956 403.116 277.948 409.354 278.481C411.08 280.955 412.767 283.598 414.386 286.386C415.967 289.106 417.404 291.869 418.713 294.657C417.389 297.479 415.953 300.246 414.408 302.953ZM421.122 300.25C422.244 303.034 423.205 305.822 423.991 308.525C421.271 309.192 418.398 309.753 415.428 310.186C417.49 306.971 419.39 303.655 421.122 300.25ZM400.043 322.435C398.109 320.437 396.175 318.215 394.262 315.779C396.132 315.864 398.045 315.928 399.979 315.928C401.934 315.928 403.867 315.886 405.759 315.779C403.889 318.215 401.955 320.437 400.043 322.435ZM384.572 310.186C381.707 309.771 378.862 309.224 376.047 308.546C376.816 305.864 377.773 303.097 378.852 300.335C379.706 301.992 380.603 303.658 381.58 305.324C382.558 306.986 383.552 308.61 384.572 310.186ZM399.936 266.921C401.87 268.919 403.804 271.142 405.716 273.577C403.846 273.492 401.934 273.428 400 273.428C398.045 273.428 396.111 273.471 394.22 273.577C396.09 271.142 398.024 268.919 399.936 266.921ZM384.551 279.17C382.489 282.378 380.589 285.688 378.856 289.085C377.765 286.376 376.808 283.614 375.987 280.81C378.707 280.164 381.58 279.603 384.551 279.17ZM365.736 305.197C358.375 302.06 353.615 297.942 353.615 294.678C353.615 291.414 358.375 287.275 365.736 284.159C367.521 283.39 369.477 282.702 371.495 282.06C372.681 286.131 374.241 290.373 376.17 294.721C374.349 298.81 372.808 303.019 371.559 307.318C369.585 306.706 367.641 305.999 365.736 305.197ZM376.923 334.904C374.096 333.289 372.868 327.11 373.824 319.171C374.054 317.216 374.428 315.155 374.887 313.055C378.958 314.054 383.408 314.823 388.087 315.325C390.736 318.978 393.625 322.451 396.736 325.72C389.957 332.019 383.595 335.47 379.269 335.47C378.452 335.479 377.646 335.286 376.923 334.909V334.904ZM426.239 319.065C427.217 327.008 426.01 333.183 423.201 334.824C422.58 335.198 421.768 335.363 420.812 335.363C416.507 335.363 410.123 331.934 403.345 325.673C406.443 322.418 409.313 318.953 411.934 315.303C416.389 314.847 420.807 314.083 425.156 313.017C425.636 315.116 426.006 317.131 426.239 319.065ZM434.242 305.197C432.457 305.966 430.502 306.655 428.483 307.296C427.213 302.976 425.651 298.746 423.808 294.636C425.721 290.313 427.255 286.093 428.42 282.039C430.4 282.652 432.351 283.36 434.264 284.159C441.625 287.296 446.384 291.414 446.384 294.678C446.363 297.942 441.603 302.082 434.242 305.197Z" fill="#007AEA"/>
<path d="M399.979 304.181C402.499 304.181 404.916 303.18 406.698 301.398C408.481 299.616 409.482 297.199 409.482 294.678C409.482 292.158 408.481 289.741 406.698 287.959C404.916 286.176 402.499 285.175 399.979 285.175C397.458 285.175 395.041 286.176 393.259 287.959C391.477 289.741 390.476 292.158 390.476 294.678C390.476 297.199 391.477 299.616 393.259 301.398C395.041 303.18 397.458 304.181 399.979 304.181Z" fill="#007AEA"/>
</g>
</g>
<defs>
<clipPath id="clip0_44_313">
<rect width="102" height="102" fill="white" transform="translate(828.611 245)"/>
</clipPath>
<clipPath id="clip1_44_313">
<rect width="101.611" height="102" fill="white" transform="translate(509 245)"/>
</clipPath>
<clipPath id="clip2_44_313">
<rect width="102" height="102" fill="white" transform="translate(349 245)"/>
</clipPath>
</defs>
</svg>
